<svg xmlns="http://www.w3.org/2000/svg" width="256mm" height="256mm" viewBox="0 0 256 256"><path d="m225.238 57.994-96.343 90.63-.154.177-.068-.041-.06.037-.138-.158-97.38-91.264c-1.384 2.453-2.156 5.198-2.156 8.099v125.052c0 10.502 10.127 18.957 22.705 18.957h152.712c12.578 0 22.705-8.455 22.705-18.957V65.474c0-2.66-.65-5.187-1.824-7.48M38.88 49.775l89.792 86.635 89.13-86.231c3.17-3.066-8.406-3.662-13.447-3.662H51.645c-4.74 0-9.131 1.2-12.764 3.258" style="fill:currentColor;fill-opacity:1.0;stroke-width:.241757"/></svg>
