<svg xmlns="http://www.w3.org/2000/svg" width="256mm" height="256mm" viewBox="0 0 256 256"><title>UNO - Transcendence - Icon</title><path d="M174.96 83.393c7.141 6.632 21.466 22.035 25.815 30.91a79.8 79.8 0 0 1 7.905 29.102H218c0-14.71-2.812-27.582-7.734-38.615s-16.394-24.573-24.832-31.929M168.04 62.265c-10.736-6.323-28.79-7.122-40.04-7.122-45 0-90 29.42-90 88.262h11.478c3.176-41.638 37.843-73.828 79.601-73.915 10.44.021 18.924.065 28.096 3.746" style="fill:currentColor;fill-opacity:1;stroke-width:.264583"/><path d="m202.613 32.57-59.835 58.597a39.7 39.7 0 0 1 12.425 7.935l57.46-56.269zm-47.41 66.532-56.664 55.49a39.69 39.69 0 0 0 29.46 13.095A39.69 39.69 0 0 0 167.688 128a39.69 39.69 0 0 0-12.484-28.898m-56.664 55.49a39.7 39.7 0 0 1-7.674-12.589l-50.283 49.242 10.049 10.262zm-7.674-12.589 51.913-50.836A39.7 39.7 0 0 0 128 88.312 39.69 39.69 0 0 0 88.312 128a39.7 39.7 0 0 0 2.553 14.003" style="fill:currentColor;fill-opacity:1;stroke-width:.264583"/></svg>
