<svg xmlns="http://www.w3.org/2000/svg" xml:space="preserve" width="900" height="900" viewBox="0 0 900 900"><path d="m202.786 201.676-34.13-34.144 6.948-6.753c10.46-10.166 22.721-20.458 37.184-31.213 63.445-47.18 141.437-74.937 218.069-77.61l19.698-.686v97.99h-10.272c-36.24 0-83.528 11.552-120.457 29.426-29.032 14.052-48.204 26.93-72.938 48.996-5.017 4.476-9.313 8.138-9.547 8.138s-15.783-15.365-34.555-34.144" style="fill:currentColor;stroke-width:1.10974"/><path d="M750.801 435.85c-4.148-71.217-28.652-131.384-75.65-185.75l-10.673-12.345 34.253-34.33 34.253-34.33 8.736 9.225c54.02 57.05 91.195 134.106 102.725 212.932 2.332 15.937 4.507 40.652 4.507 51.202v6.436H751.56z" style="fill:currentColor;fill-opacity:.75;stroke-width:1.10974"/><path d="M452.774 799.905v-48.823l14.704-.704c57.04-2.73 115.356-23.91 162.209-58.913 6.764-5.054 16.793-13.23 22.286-18.17l9.988-8.98 34.402 34.411 34.401 34.412-9.432 8.931c-66.366 62.836-160.674 102.655-251.08 106.01l-17.478.65z" style="fill:currentColor;fill-opacity:.5;stroke-width:1.10974"/><path d="M158.112 721.61c-30.53-32.723-57.327-73.895-74.936-115.137C64.14 561.89 53.93 516.79 51.458 466.37l-.748-15.26h97.729l.774 13.04c2.84 47.878 15.172 91.65 36.822 130.692 12.182 21.97 24.525 39.097 43.337 60.138l6.87 7.683-34.065 34.051c-18.735 18.728-34.393 34.051-34.794 34.051s-4.573-4.12-9.271-9.155" style="fill:currentColor;fill-opacity:.25;stroke-width:1.10974"/></svg>
